<svg width="58" height="59" viewBox="0 0 58 59" fill="none" xmlns="http://www.w3.org/2000/svg">
<path d="M31.062 1.44C30.8393 1.25301 30.5629 1.10289 30.2518 0.999967C29.9408 0.897043 29.6024 0.84375 29.26 0.84375C28.9176 0.84375 28.5793 0.897043 28.2682 0.999967C27.9572 1.10289 27.6808 1.25301 27.4581 1.44C21.1992 6.7031 0.79155 24.8987 0.79155 38.3769C0.79155 50.937 11.7911 58.8438 29.259 58.8438C46.727 58.8438 57.7265 50.937 57.7265 38.3769C57.7265 24.8987 37.3189 6.7031 31.062 1.44ZM32.4221 51.453C32.0421 51.4536 31.6675 51.3885 31.3298 51.2633C30.9921 51.1382 30.7011 50.9565 30.4814 50.7336C30.2617 50.5107 30.1197 50.2532 30.0673 49.9826C30.0149 49.7121 30.0536 49.4364 30.1803 49.1789C30.342 48.8428 30.6471 48.552 31.0521 48.3479C31.4571 48.1437 31.9414 48.0366 32.4359 48.0418C35.576 48.0369 38.5856 47.1379 40.806 45.5416C43.0263 43.9452 44.2768 41.7815 44.2835 39.5239C44.2763 39.1684 44.4253 38.8202 44.7092 38.529C44.9932 38.2379 45.3977 38.0185 45.8651 37.9022C46.2233 37.8112 46.6067 37.7833 46.983 37.821C47.3594 37.8586 47.7176 37.9608 48.0276 38.1187C48.3376 38.2767 48.5903 38.4859 48.7644 38.7287C48.9385 38.9715 49.029 39.2408 49.0281 39.514C49.0234 42.6793 47.2723 45.7141 44.1591 47.9524C41.0459 50.1906 36.8248 51.4496 32.4221 51.453Z" fill="#00D2DF"/>
</svg>
