<svg width="66" height="61" viewBox="0 0 66 61" fill="none" xmlns="http://www.w3.org/2000/svg">
<g clip-path="url(#clip0_61_39)">
<path d="M56.9584 0C56.0065 0 55.1002 0.343632 54.3387 0.950043L52.5161 2.33872L63.2233 10.8649L64.9698 9.41351C66.4929 8.20069 66.4929 6.39359 64.9698 5.18077L59.6542 0.948021C58.8927 0.341611 57.9103 0 56.9584 0ZM50.7696 3.53941L47.9925 5.3728L59.4156 14.469L61.9541 12.4476L50.7696 3.53941ZM46.4847 6.82414L23.5624 24.8911C23.4464 24.9674 23.3393 25.052 23.2425 25.1438L23.0852 25.2065C22.8083 25.4591 22.6169 25.7638 22.5292 26.0918L19.4349 34.7453C19.3022 35.0878 19.2894 35.4526 19.3978 35.8005C19.5062 36.1484 19.7316 36.4661 20.0499 36.7196C20.3682 36.973 20.7672 37.1526 21.2041 37.2389C21.641 37.3252 22.0991 37.3149 22.5292 37.2093L33.3964 34.7453C33.7572 34.6771 34.0942 34.5453 34.3824 34.3595C34.6706 34.1737 34.9028 33.9388 35.0616 33.6719L57.593 15.9203L53.3081 12.2556V12.4456L50.2924 10.0442H50.531L46.4847 6.82414ZM2.06416 8.21282C1.47608 8.30188 0.946439 8.55358 0.568808 8.92346C0.191177 9.29333 -0.0101482 9.75757 0.000393972 10.2342V50.6615C0.000393972 51.1976 0.267838 51.7118 0.743892 52.0909C1.21995 52.4699 1.86561 52.6829 2.53886 52.6829H53.3081C53.9813 52.6829 54.627 52.4699 55.103 52.0909C55.5791 51.7118 55.8465 51.1976 55.8465 50.6615V28.4265C55.8465 27.8904 55.5791 27.3763 55.103 26.9972C54.627 26.6181 53.9813 26.4051 53.3081 26.4051C52.6348 26.4051 51.9892 26.6181 51.5131 26.9972C51.0371 27.3763 50.7696 27.8904 50.7696 28.4265V48.6402H5.07732V12.2556H30.4619C31.1352 12.2556 31.7808 12.0426 32.2569 11.6635C32.7329 11.2844 33.0004 10.7703 33.0004 10.2342C33.0004 9.69809 32.7329 9.18394 32.2569 8.80486C31.7808 8.42578 31.1352 8.21282 30.4619 8.21282H2.53886C2.45936 8.20984 2.37973 8.20984 2.30024 8.21282C2.22075 8.20984 2.14112 8.20984 2.06162 8.21282H2.06416ZM26.9741 28.0485L30.4645 28.2365L30.7031 31.2685L27.2127 32.0892L25.8648 31.0179L26.9741 28.0485Z" fill="#00D2DF"/>
</g>
<defs>
<clipPath id="clip0_61_39">
<rect width="66" height="60.5" fill="white"/>
</clipPath>
</defs>
</svg>
