<svg width="72" height="58" viewBox="0 0 72 58" fill="none" xmlns="http://www.w3.org/2000/svg">
<path d="M47.9996 29C44.9156 29 41.9336 27.4874 39.5996 24.7422C37.3301 22.0647 35.9441 18.4941 35.6996 14.6911C35.4386 10.6344 36.5651 6.90397 38.8706 4.18522C41.1761 1.46648 44.3996 0 47.9996 0C51.5741 0 54.8065 1.49284 57.1045 4.20499C59.425 6.94351 60.5545 10.6674 60.2935 14.6895C60.043 18.4974 58.6585 22.0663 56.3935 24.7406C54.0655 27.4874 51.0851 29 47.9996 29ZM67.774 57.9999H28.2267C27.5908 58.0037 26.9627 57.8471 26.3906 57.5423C25.8185 57.2375 25.3177 56.7926 24.9267 56.2418C24.512 55.6447 24.2255 54.9523 24.0889 54.2164C23.9523 53.4805 23.969 52.7202 24.1377 51.9923C25.4007 46.4214 28.5297 41.8011 33.1857 38.6326C37.3181 35.8215 42.5786 34.2727 47.9996 34.2727C53.5271 34.2727 58.6495 35.7556 62.806 38.565C67.4725 41.7171 70.606 46.3637 71.863 52.0022C72.0297 52.7306 72.0445 53.4909 71.9063 54.2264C71.7681 54.9619 71.4805 55.6537 71.065 56.25C70.6744 56.7983 70.1747 57.241 69.6042 57.5443C69.0338 57.8477 68.4077 58.0035 67.774 57.9999ZM19.6497 29.6591C14.3713 29.6591 9.73028 24.2677 9.29978 17.6422C9.08678 14.2479 10.0498 11.109 11.9998 8.80709C13.9288 6.52829 16.6497 5.27272 19.6497 5.27272C22.6497 5.27272 25.3497 6.53488 27.2892 8.82687C29.2542 11.1469 30.2142 14.2792 29.9892 17.6455C29.5587 24.2693 24.9192 29.6591 19.6497 29.6591ZM29.4987 34.8412C26.8602 33.4241 23.4357 32.7156 19.6512 32.7156C15.2322 32.7156 10.9408 33.981 7.56579 36.278C3.73931 38.8863 1.16532 42.6843 0.125829 47.2699C-0.0262928 47.9295 -0.0406808 48.6183 0.083741 49.2849C0.208163 49.9514 0.468174 50.5784 0.844325 51.119C1.20124 51.6224 1.6585 52.0291 2.18092 52.3079C2.70334 52.5867 3.27701 52.7301 3.85781 52.7272H20.5077C20.7887 52.7272 21.0608 52.6188 21.2766 52.4209C21.4923 52.2231 21.638 51.9484 21.6882 51.6447C21.7047 51.5409 21.7257 51.437 21.7497 51.3349C23.0217 45.7227 26.0022 40.9806 30.4062 37.5237C30.5681 37.3954 30.6984 37.2248 30.7852 37.0272C30.872 36.8297 30.9125 36.6115 30.9031 36.3924C30.8938 36.1733 30.8348 35.9602 30.7315 35.7725C30.6282 35.5848 30.4839 35.4283 30.3117 35.3173C30.0762 35.1658 29.8062 35.0059 29.4987 34.8412Z" fill="#00D2DF"/>
</svg>
