<svg width="53" height="58" viewBox="0 0 53 58" fill="none" xmlns="http://www.w3.org/2000/svg">
<path d="M5.83333 58C4.22917 58 2.85639 57.4326 1.715 56.2977C0.573611 55.1628 0.00194444 53.7969 0 52.2V11.6C0 10.005 0.571667 8.64007 1.715 7.5052C2.85833 6.37033 4.23111 5.80193 5.83333 5.8H18.0833C18.7153 4.06 19.7731 2.65833 21.2567 1.595C22.7403 0.531666 24.4047 0 26.25 0C28.0972 0 29.7626 0.531666 31.2462 1.595C32.7299 2.65833 33.7867 4.06 34.4167 5.8H46.6667C48.2708 5.8 49.6446 6.3684 50.7879 7.5052C51.9312 8.642 52.5019 10.0069 52.5 11.6V52.2C52.5 53.795 51.9293 55.1609 50.7879 56.2977C49.6465 57.4345 48.2728 58.0019 46.6667 58H5.83333ZM5.83333 52.2H46.6667V11.6H5.83333V52.2ZM11.6667 46.4H32.0833V40.6H11.6667V46.4ZM11.6667 34.8H40.8333V29H11.6667V34.8ZM11.6667 23.2H40.8333V17.4H11.6667V23.2ZM26.25 9.425C26.8819 9.425 27.405 9.2191 27.8192 8.8073C28.2333 8.3955 28.4394 7.8764 28.4375 7.25C28.4375 6.62167 28.2304 6.10257 27.8162 5.6927C27.4021 5.28283 26.88 5.07693 26.25 5.075C25.6181 5.075 25.096 5.2809 24.6838 5.6927C24.2715 6.1045 24.0644 6.6236 24.0625 7.25C24.0625 7.87833 24.2696 8.3984 24.6838 8.8102C25.0979 9.222 25.62 9.42693 26.25 9.425Z" fill="#00D2DF"/>
</svg>
